<svg version="1.1" xmlns="http://www.w3.org/2000/svg" viewBox="0 0 1100.3556142892942 767.1203190458116" width="2200.7112285785884" height="1534.2406380916232">
  <!-- svg-source:excalidraw -->
  
  <defs>
    <style class="style-fonts">
      @font-face {
        font-family: "Virgil";
        src: url("https://excalidraw.com/Virgil.woff2");
      }
      @font-face {
        font-family: "Cascadia";
        src: url("https://excalidraw.com/Cascadia.woff2");
      }
    </style>
  </defs>
  <rect x="0" y="0" width="1100.3556142892942" height="767.1203190458116" fill="#ffffff"></rect><g stroke-linecap="round" transform="translate(10 10.00394450454263) rotate(0 114.51040917500507 98.5)"><path d="M7.86 8.16 C7.86 8.16, 7.86 8.16, 7.86 8.16 M7.86 8.16 C7.86 8.16, 7.86 8.16, 7.86 8.16 M3.66 19.09 C5.6 15.64, 11.61 13.22, 18.1 2.48 M3.66 19.09 C7.39 13.99, 11.55 9.55, 18.1 2.48 M2.75 26.24 C12.02 18.73, 16.91 6.57, 24.4 1.33 M2.75 26.24 C9.13 19.97, 13.68 13.42, 24.4 1.33 M2.48 32.64 C15.31 21.31, 24.1 8.45, 30.7 0.18 M2.48 32.64 C13.26 20.14, 22.7 8.84, 30.7 0.18 M2.88 38.28 C11.4 28.5, 17.39 21.95, 34.37 2.05 M2.88 38.28 C11.14 29.91, 19.43 20.31, 34.37 2.05 M2.62 44.68 C16.8 28.45, 26.53 14.1, 39.36 2.41 M2.62 44.68 C11.43 34.58, 21.18 23.17, 39.36 2.41 M2.36 51.07 C18.6 34.85, 32.6 18.09, 45 2.02 M2.36 51.07 C19.12 33.38, 34.97 14.56, 45 2.02 M2.75 56.72 C15.45 40.46, 29.38 28.12, 49.99 2.38 M2.75 56.72 C11.75 46.41, 21.92 35.07, 49.99 2.38 M2.49 63.11 C17.28 48.6, 31.33 31.44, 55.63 1.98 M2.49 63.11 C20.06 43.1, 36.68 23.24, 55.63 1.98 M2.23 69.51 C18.35 48.62, 36.32 32.56, 60.62 2.34 M2.23 69.51 C19.18 50.12, 35.3 30.62, 60.62 2.34 M2.62 75.16 C22 49.47, 44.14 23.39, 66.26 1.95 M2.62 75.16 C24.61 51.02, 46.55 25.37, 66.26 1.95 M2.36 81.55 C17.77 63.28, 33.17 45.95, 71.25 2.31 M2.36 81.55 C21.05 58.82, 40.33 36.86, 71.25 2.31 M2.1 87.95 C24.81 64.62, 45.61 37.46, 76.89 1.91 M2.1 87.95 C25.88 61.17, 50.42 33.04, 76.89 1.91 M2.49 93.59 C21.74 69.01, 41.23 45.9, 81.88 2.27 M2.49 93.59 C30.14 60.76, 59.36 28.7, 81.88 2.27 M2.23 99.99 C18.01 80.55, 38.15 61.47, 87.52 1.88 M2.23 99.99 C25.88 72.15, 49.6 45.29, 87.52 1.88 M2.63 105.64 C26.79 75.66, 54.18 46.58, 92.51 2.24 M2.63 105.64 C37.62 66.2, 72.64 26.56, 92.51 2.24 M2.37 112.03 C35.71 74.94, 68.89 36.88, 98.15 1.85 M2.37 112.03 C33.22 78.41, 62.22 43.81, 98.15 1.85 M2.1 118.43 C32.41 81.05, 66.18 42.77, 103.14 2.21 M2.1 118.43 C25.48 91.36, 49.23 63.68, 103.14 2.21 M2.5 124.07 C43.99 75.35, 87.07 28.5, 108.78 1.81 M2.5 124.07 C26.83 94.87, 50.66 66.3, 108.78 1.81 M2.24 130.47 C38.67 90.59, 72.6 50.02, 113.77 2.17 M2.24 130.47 C32.93 95.48, 64.21 60.07, 113.77 2.17 M1.98 136.87 C37.55 93.56, 76.18 48.04, 119.41 1.78 M1.98 136.87 C40.8 91.55, 79.45 45.83, 119.41 1.78 M2.37 142.51 C47.28 90.65, 90.38 42.14, 124.4 2.14 M2.37 142.51 C34.72 107.27, 66.48 71.57, 124.4 2.14 M2.11 148.91 C52.61 91.64, 98.44 36.02, 130.04 1.74 M2.11 148.91 C31.66 113.41, 63.05 77.67, 130.04 1.74 M2.5 154.55 C32.18 119.76, 62.77 84.74, 135.03 2.1 M2.5 154.55 C37.74 113.68, 72.02 74.79, 135.03 2.1 M2.24 160.95 C47 111.15, 87.72 62.92, 140.67 1.71 M2.24 160.95 C33.44 124.91, 65.25 89.45, 140.67 1.71 M1.98 167.35 C42.92 121.1, 83.07 74.8, 145.66 2.07 M1.98 167.35 C50.15 112.11, 99.97 54.84, 145.66 2.07 M3.03 172.24 C46.78 122.28, 90.43 71.16, 150.65 2.43 M3.03 172.24 C47.57 121.61, 92.91 70.57, 150.65 2.43 M2.11 179.39 C53.82 119, 107.82 60.98, 156.29 2.03 M2.11 179.39 C42.27 133.44, 81.56 88.48, 156.29 2.03 M4.48 182.77 C43.06 140.1, 81.53 94.45, 161.28 2.39 M4.48 182.77 C59.13 117.18, 114.92 53.33, 161.28 2.39 M6.84 186.15 C40.33 146.05, 73.65 106.29, 166.92 2 M6.84 186.15 C65.45 118.54, 124.58 50.42, 166.92 2 M9.2 189.53 C56.11 137.81, 102.04 82.44, 171.91 2.36 M9.2 189.53 C41.77 151.91, 75.75 113.51, 171.91 2.36 M12.22 192.15 C77.84 117.59, 141.77 45.46, 177.55 1.96 M12.22 192.15 C67.99 127.12, 123.72 63.41, 177.55 1.96 M15.9 194.02 C61.32 142.61, 107.2 92.49, 182.54 2.32 M15.9 194.02 C67.52 132.85, 121.44 72.59, 182.54 2.32 M19.57 195.89 C75.89 135.3, 129.19 69.73, 188.18 1.93 M19.57 195.89 C56.6 155.82, 90.72 114.62, 188.18 1.93 M23.9 197 C75.06 140.17, 123.31 85.38, 193.17 2.29 M23.9 197 C77.12 135.62, 128.8 76.12, 193.17 2.29 M28.89 197.36 C89.42 126.64, 148.71 56.76, 198.81 1.9 M28.89 197.36 C88.18 130.58, 148.3 61.54, 198.81 1.9 M33.22 198.48 C96.58 128.24, 158.21 56.67, 203.8 2.26 M33.22 198.48 C74.83 150.9, 116.39 102.04, 203.8 2.26 M38.86 198.09 C106.51 121.38, 170.95 46.5, 208.13 3.37 M38.86 198.09 C89.21 139.75, 141.51 80.35, 208.13 3.37 M43.85 198.45 C98.96 134.84, 154.4 72.6, 213.11 3.73 M43.85 198.45 C101.18 133.61, 157.98 66.49, 213.11 3.73 M49.49 198.05 C87.01 155.69, 124.89 111.48, 216.79 5.6 M49.49 198.05 C102.99 134.95, 156.47 73.33, 216.79 5.6 M54.48 198.41 C110.88 133.51, 163.69 69.87, 219.81 8.22 M54.48 198.41 C95.96 147.85, 139.37 99.3, 219.81 8.22 M60.12 198.02 C97.55 154.48, 131.12 113.56, 223.48 10.09 M60.12 198.02 C100.78 148.47, 143.69 100.49, 223.48 10.09 M65.11 198.38 C127.35 126.39, 188.64 56.42, 225.85 13.47 M65.11 198.38 C99.73 159.56, 134.09 119.7, 225.85 13.47 M70.75 197.98 C104.58 161.1, 138.34 121.39, 226.9 18.36 M70.75 197.98 C112.6 152.75, 151.93 106.84, 226.9 18.36 M75.74 198.34 C106.51 165.64, 139 130.12, 227.95 23.25 M75.74 198.34 C117 151.8, 155.42 107.21, 227.95 23.25 M81.38 197.95 C118.25 157.08, 153.44 112.81, 228.34 28.89 M81.38 197.95 C122.6 153.61, 160.3 107.68, 228.34 28.89 M86.37 198.31 C132.36 145.22, 178.38 92.46, 230.05 33.03 M86.37 198.31 C116.04 163.66, 144.67 128.73, 230.05 33.03 M92.01 197.91 C146.33 137.09, 201.72 73.53, 229.79 39.42 M92.01 197.91 C137.18 145.2, 181.85 92.97, 229.79 39.42 M97 198.27 C123.97 165, 154.59 130.18, 230.18 45.07 M97 198.27 C139.99 150.11, 181.63 102.23, 230.18 45.07 M102.64 197.88 C145.88 146.84, 185.7 100.55, 229.92 51.46 M102.64 197.88 C139.36 154.21, 177.43 111.5, 229.92 51.46 M107.63 198.24 C158.46 140.56, 205.01 84.81, 230.31 57.11 M107.63 198.24 C154.51 143.27, 201.29 91.39, 230.31 57.11 M112.62 198.6 C136.85 172.01, 160.3 144.59, 230.05 63.51 M112.62 198.6 C145.66 158.71, 179.1 120.54, 230.05 63.51 M118.26 198.2 C149.78 164.84, 177.61 130.55, 229.79 69.9 M118.26 198.2 C147.21 162.94, 176.55 130.65, 229.79 69.9 M123.25 198.56 C161.18 154.7, 196.34 113.67, 230.19 75.55 M123.25 198.56 C151.4 165.31, 180.76 131.09, 230.19 75.55 M128.89 198.17 C158.18 161.49, 189.31 130.23, 229.92 81.94 M128.89 198.17 C165.14 154.67, 201.84 113.01, 229.92 81.94 M133.88 198.53 C167.92 156.7, 201.71 118, 230.32 87.59 M133.88 198.53 C159.8 168.03, 184.37 137.64, 230.32 87.59 M139.52 198.13 C160.66 172.11, 185.86 148.77, 230.06 93.98 M139.52 198.13 C171.45 165.03, 201.47 129.58, 230.06 93.98 M144.51 198.49 C162.27 176.99, 182.16 155.91, 229.8 100.38 M144.51 198.49 C172.67 166.32, 199.8 135.08, 229.8 100.38 M150.15 198.1 C176.95 168.4, 200.48 137.82, 230.19 106.03 M150.15 198.1 C179.14 165.78, 207.93 131.49, 230.19 106.03 M155.14 198.46 C181.96 167.53, 210.17 134.95, 229.93 112.42 M155.14 198.46 C182.58 166.34, 210.61 135.41, 229.93 112.42 M160.78 198.07 C181.06 175.7, 200.18 153.43, 230.32 118.07 M160.78 198.07 C182.27 173.17, 203.48 146.58, 230.32 118.07 M165.77 198.43 C182.55 178.48, 199.44 158.35, 230.06 124.46 M165.77 198.43 C188 174.07, 207.82 150.54, 230.06 124.46 M171.41 198.03 C187.98 179.85, 202.26 165.34, 229.8 130.86 M171.41 198.03 C192.95 173.55, 214.69 148.49, 229.8 130.86 M176.4 198.39 C195.91 176.12, 218.98 150.1, 230.2 136.51 M176.4 198.39 C189.21 181.67, 204.01 165.56, 230.2 136.51 M182.04 198 C196.57 181.46, 211.18 164.26, 229.93 142.9 M182.04 198 C199.93 176.86, 219.72 155.23, 229.93 142.9 M187.03 198.36 C197.13 187.77, 208.42 173.77, 230.33 148.55 M187.03 198.36 C202.22 180.27, 218.27 162.73, 230.33 148.55 M192.67 197.96 C201.02 190.8, 205.73 178.26, 230.07 154.94 M192.67 197.96 C204.94 183.42, 216.71 168.4, 230.07 154.94 M198.31 197.57 C212.46 184.02, 223.95 170.24, 229.81 161.34 M198.31 197.57 C210.63 183.06, 222.09 169.49, 229.81 161.34 M203.96 197.17 C213.56 188.55, 223.61 176.14, 230.86 166.23 M203.96 197.17 C210.64 187.98, 218.1 180.48, 230.86 166.23 M210.91 195.27 C218.12 186.29, 223.22 178.57, 229.94 173.38 M210.91 195.27 C214.76 190.26, 220.18 183.3, 229.94 173.38" stroke="#ffec99" stroke-width="0.5" fill="none"></path><path d="M32 0 M32 0 C97.49 -1.47, 162.56 0.04, 197.02 0 M32 0 C97.83 -0.44, 161.16 -0.75, 197.02 0 M197.02 0 C219.35 0.57, 227.5 9.09, 229.02 32 M197.02 0 C219.13 2.1, 230.15 12.83, 229.02 32 M229.02 32 C228.6 80.43, 229.97 130.17, 229.02 165 M229.02 32 C229.74 75.59, 229.99 118.99, 229.02 165 M229.02 165 C230.46 186.43, 218.35 197.93, 197.02 197 M229.02 165 C229.54 185.58, 220.2 197.7, 197.02 197 M197.02 197 C137.89 196.92, 78.34 195.9, 32 197 M197.02 197 C136.29 196.2, 73.97 195.71, 32 197 M32 197 C11.47 195.32, 1.4 187.37, 0 165 M32 197 C12.92 195.85, -2.14 185.42, 0 165 M0 165 C-0.36 120.12, 3.06 73.71, 0 32 M0 165 C0.84 135.47, 0.72 106.17, 0 32 M0 32 C1.93 11.74, 9.08 0.52, 32 0 M0 32 C1.85 10.35, 12.4 1.09, 32 0" stroke="#1e1e1e" stroke-width="1" fill="none"></path></g><g transform="translate(43.11169059214615 95.37097001497358) rotate(0 73.77996826171875 17.5)"><text x="0" y="0" font-family="Virgil, Segoe UI Emoji" font-size="28px" fill="#1e1e1e" text-anchor="start" style="white-space: pre;" direction="ltr" dominant-baseline="text-before-edge">UI Thread</text></g><g stroke-linecap="round" transform="translate(512.8259163943674 10) rotate(0 114.51040917500507 98.5)"><path d="M7.86 8.16 C7.86 8.16, 7.86 8.16, 7.86 8.16 M7.86 8.16 C7.86 8.16, 7.86 8.16, 7.86 8.16 M3.66 19.09 C5.35 13.97, 9.51 10.32, 18.1 2.48 M3.66 19.09 C9.08 13.5, 13.66 8.92, 18.1 2.48 M2.75 26.24 C8.81 21.12, 12.71 13.09, 24.4 1.33 M2.75 26.24 C9.03 18.8, 16.53 9.78, 24.4 1.33 M2.48 32.64 C11.22 23.37, 15.79 15.42, 30.7 0.18 M2.48 32.64 C11.72 21.64, 22.69 8.75, 30.7 0.18 M2.88 38.28 C9.47 28.66, 18.46 20.7, 34.37 2.05 M2.88 38.28 C14.15 25.6, 25.48 12.9, 34.37 2.05 M2.62 44.68 C13.96 31.68, 24.79 21.98, 39.36 2.41 M2.62 44.68 C12.51 34.74, 21.67 23.49, 39.36 2.41 M2.36 51.07 C14.3 36.07, 27.43 20.65, 45 2.02 M2.36 51.07 C20.39 32.57, 36.56 12.66, 45 2.02 M2.75 56.72 C19.85 36.45, 40.82 16.39, 49.99 2.38 M2.75 56.72 C19.93 36.46, 38.94 16.5, 49.99 2.38 M2.49 63.11 C22.44 40.46, 40.2 20.72, 55.63 1.98 M2.49 63.11 C16.55 45.86, 32.02 29.36, 55.63 1.98 M2.23 69.51 C19.41 51.95, 34.02 35.43, 60.62 2.34 M2.23 69.51 C25.92 43.91, 48.84 16.6, 60.62 2.34 M2.62 75.16 C19.54 52.76, 40.3 35.1, 66.26 1.95 M2.62 75.16 C20.38 53.51, 39.33 33.32, 66.26 1.95 M2.36 81.55 C21.92 59.15, 39.11 39.5, 71.25 2.31 M2.36 81.55 C21.92 60.71, 41.04 38.15, 71.25 2.31 M2.1 87.95 C28.35 55.63, 58.52 23.37, 76.89 1.91 M2.1 87.95 C25.42 61.59, 49.4 34.12, 76.89 1.91 M2.49 93.59 C21.53 70.32, 44.19 48.42, 81.88 2.27 M2.49 93.59 C22.03 72.15, 40.13 50.27, 81.88 2.27 M2.23 99.99 C25.63 73.66, 47.53 45.74, 87.52 1.88 M2.23 99.99 C27.65 70.66, 52.64 40.6, 87.52 1.88 M2.63 105.64 C23.4 79.36, 49.12 52.17, 92.51 2.24 M2.63 105.64 C37.38 64.34, 73.82 24.57, 92.51 2.24 M2.37 112.03 C26.65 81.14, 53.47 53.93, 98.15 1.85 M2.37 112.03 C39.32 70.92, 73.77 30.98, 98.15 1.85 M2.1 118.43 C40.24 73.6, 80.11 26.78, 103.14 2.21 M2.1 118.43 C30.22 83.17, 59.4 49.78, 103.14 2.21 M2.5 124.07 C31.25 93.54, 54.49 62.72, 108.78 1.81 M2.5 124.07 C38.19 83.61, 74.29 43.56, 108.78 1.81 M2.24 130.47 C30.04 101.76, 54.84 71.47, 113.77 2.17 M2.24 130.47 C27.23 103, 52.36 74.16, 113.77 2.17 M1.98 136.87 C35.15 102.5, 66.45 61.83, 119.41 1.78 M1.98 136.87 C46.04 86.04, 90.26 34.77, 119.41 1.78 M2.37 142.51 C48 89.53, 92.13 38.7, 124.4 2.14 M2.37 142.51 C38.91 101.06, 75.95 58.16, 124.4 2.14 M2.11 148.91 C29.06 121.07, 54.65 88.19, 130.04 1.74 M2.11 148.91 C47.41 96.73, 92.7 45.21, 130.04 1.74 M2.5 154.55 C41.24 111.4, 80 66.75, 135.03 2.1 M2.5 154.55 C47.86 103.3, 92.17 51.21, 135.03 2.1 M2.24 160.95 C49.5 106.4, 93.57 55.11, 140.67 1.71 M2.24 160.95 C43.47 113.91, 82.97 68.61, 140.67 1.71 M1.98 167.35 C39.16 125.02, 76.58 83.09, 145.66 2.07 M1.98 167.35 C34.27 129.86, 65.6 93.94, 145.66 2.07 M3.03 172.24 C47.83 120.75, 93.05 69.11, 150.65 2.43 M3.03 172.24 C47.99 121.43, 93.46 68.23, 150.65 2.43 M2.11 179.39 C44.99 132.47, 85.63 85.79, 156.29 2.03 M2.11 179.39 C50.82 123.8, 99.14 67.71, 156.29 2.03 M4.48 182.77 C35.46 146.71, 65.8 110.2, 161.28 2.39 M4.48 182.77 C50.13 130.26, 96.67 77.46, 161.28 2.39 M6.84 186.15 C50.5 133.97, 96.37 84.76, 166.92 2 M6.84 186.15 C47.29 139.94, 85.39 95.08, 166.92 2 M9.2 189.53 C52.32 136.72, 96.24 87.32, 171.91 2.36 M9.2 189.53 C43.29 148.37, 79.02 109.02, 171.91 2.36 M12.22 192.15 C74.67 120.24, 138.52 47.71, 177.55 1.96 M12.22 192.15 C69.06 125.4, 126.4 58.39, 177.55 1.96 M15.9 194.02 C80.8 118.98, 147.54 43.35, 182.54 2.32 M15.9 194.02 C49.78 154.93, 83.68 116.3, 182.54 2.32 M19.57 195.89 C60.58 147.1, 103.47 100.05, 188.18 1.93 M19.57 195.89 C85.66 120.78, 151.94 45.37, 188.18 1.93 M23.9 197 C60.89 157.03, 97.52 113.12, 193.17 2.29 M23.9 197 C72.42 143.54, 118.9 88.59, 193.17 2.29 M28.89 197.36 C74.45 145.25, 117.89 96.02, 198.81 1.9 M28.89 197.36 C72.89 145.96, 117.19 94.64, 198.81 1.9 M33.22 198.48 C71.43 156.51, 107.49 113.88, 203.8 2.26 M33.22 198.48 C75.85 151.54, 116.32 104.78, 203.8 2.26 M38.86 198.09 C101.89 126.09, 164.11 53.97, 208.13 3.37 M38.86 198.09 C87.99 142.61, 137.18 85.27, 208.13 3.37 M43.85 198.45 C81.43 154.75, 119.05 114.33, 213.11 3.73 M43.85 198.45 C105.73 127.87, 165.92 57.94, 213.11 3.73 M49.49 198.05 C93.3 147.96, 137.09 99.08, 216.79 5.6 M49.49 198.05 C102.95 135.8, 155.56 74.63, 216.79 5.6 M54.48 198.41 C105.62 139.01, 160.22 76.63, 219.81 8.22 M54.48 198.41 C101.12 145.69, 146.25 94.05, 219.81 8.22 M60.12 198.02 C122.35 124.84, 188.29 49.12, 223.48 10.09 M60.12 198.02 C95.77 157.41, 132.05 117.81, 223.48 10.09 M65.11 198.38 C117.66 136.25, 175.53 73.86, 225.85 13.47 M65.11 198.38 C115.11 140.67, 165.17 82.6, 225.85 13.47 M70.75 197.98 C121.2 138.46, 176.17 76.71, 226.9 18.36 M70.75 197.98 C132.06 128.99, 191.83 60.7, 226.9 18.36 M75.74 198.34 C133.74 134.64, 188 68.84, 227.95 23.25 M75.74 198.34 C134.64 132.62, 192.88 64.65, 227.95 23.25 M81.38 197.95 C119.47 155.04, 157.02 110.15, 228.34 28.89 M81.38 197.95 C116.14 155.57, 153.71 112.42, 228.34 28.89 M86.37 198.31 C117.92 161.01, 148.76 124.64, 230.05 33.03 M86.37 198.31 C122.4 157.92, 159.41 115.81, 230.05 33.03 M92.01 197.91 C121.11 162.32, 152.04 128.45, 229.79 39.42 M92.01 197.91 C141.5 137.72, 191.82 80.35, 229.79 39.42 M97 198.27 C143.86 143.13, 196.14 84.01, 230.18 45.07 M97 198.27 C132.71 156.91, 168.93 115.44, 230.18 45.07 M102.64 197.88 C141.32 156.8, 175.15 113.82, 229.92 51.46 M102.64 197.88 C143.61 154.18, 183.15 107.37, 229.92 51.46 M107.63 198.24 C136.67 162.47, 167.54 127.86, 230.31 57.11 M107.63 198.24 C141.3 160.34, 175.37 119.68, 230.31 57.11 M112.62 198.6 C139.69 169.18, 165.36 140.98, 230.05 63.51 M112.62 198.6 C158.58 146.95, 203.64 93.3, 230.05 63.51 M118.26 198.2 C153.68 157.84, 190.41 115.05, 229.79 69.9 M118.26 198.2 C149.17 162.89, 179.07 127.87, 229.79 69.9 M123.25 198.56 C161.45 153.32, 199.59 109.75, 230.19 75.55 M123.25 198.56 C161.06 156.9, 197.13 117.03, 230.19 75.55 M128.89 198.17 C153.09 171.01, 175.81 144.95, 229.92 81.94 M128.89 198.17 C162.25 157.2, 197.71 117.65, 229.92 81.94 M133.88 198.53 C172.73 154.83, 208.48 110.93, 230.32 87.59 M133.88 198.53 C154.03 173.88, 173.6 152, 230.32 87.59 M139.52 198.13 C160.55 175.43, 179.16 156.54, 230.06 93.98 M139.52 198.13 C171.04 161.6, 201.77 125.81, 230.06 93.98 M144.51 198.49 C176.37 164.1, 202.63 129.66, 229.8 100.38 M144.51 198.49 C170.94 169.62, 194.62 141.94, 229.8 100.38 M150.15 198.1 C174.13 169.15, 200.02 142.31, 230.19 106.03 M150.15 198.1 C168.2 177.5, 186.56 157.66, 230.19 106.03 M155.14 198.46 C183.03 163.46, 213.18 129.41, 229.93 112.42 M155.14 198.46 C170.04 182.89, 184.91 164.62, 229.93 112.42 M160.78 198.07 C183.27 169.07, 209.05 143.59, 230.32 118.07 M160.78 198.07 C180.29 175.52, 198.71 152.02, 230.32 118.07 M165.77 198.43 C182.66 176.52, 200.51 157.96, 230.06 124.46 M165.77 198.43 C189.48 172.6, 214.7 143.93, 230.06 124.46 M171.41 198.03 C193.78 171.68, 218.43 146.04, 229.8 130.86 M171.41 198.03 C189.16 177.4, 208.35 155.23, 229.8 130.86 M176.4 198.39 C189.29 182.67, 205.51 164.78, 230.2 136.51 M176.4 198.39 C195.75 176.39, 215.79 153.07, 230.2 136.51 M182.04 198 C196.2 179.92, 208.95 166.92, 229.93 142.9 M182.04 198 C195.17 181.94, 208.68 167.42, 229.93 142.9 M187.03 198.36 C203.79 181.49, 219.71 158.7, 230.33 148.55 M187.03 198.36 C203.07 180.03, 219.6 160.68, 230.33 148.55 M192.67 197.96 C203.03 186.17, 208.45 177.17, 230.07 154.94 M192.67 197.96 C200.41 189.42, 208.87 179.42, 230.07 154.94 M198.31 197.57 C211.67 183.45, 221.73 170.78, 229.81 161.34 M198.31 197.57 C207.65 185.2, 218.62 174.85, 229.81 161.34 M203.96 197.17 C210.96 188.38, 219.21 176.91, 230.86 166.23 M203.96 197.17 C214.64 186.27, 223.38 174.11, 230.86 166.23 M210.91 195.27 C214.22 189.19, 221.31 184.52, 229.94 173.38 M210.91 195.27 C217.6 186.86, 224.73 180.06, 229.94 173.38" stroke="#ffec99" stroke-width="0.5" fill="none"></path><path d="M32 0 M32 0 C81.57 -0.62, 133.85 -0.51, 197.02 0 M32 0 C68.59 -1.12, 103.24 0.12, 197.02 0 M197.02 0 C219.52 -0.64, 227.89 10.26, 229.02 32 M197.02 0 C219.44 2.23, 230.73 11.49, 229.02 32 M229.02 32 C231.29 73.97, 229.7 118.66, 229.02 165 M229.02 32 C226.97 67.19, 228.64 101.39, 229.02 165 M229.02 165 C228.42 184.91, 219.39 198.6, 197.02 197 M229.02 165 C230.16 188.49, 216.16 196.88, 197.02 197 M197.02 197 C134.14 195.63, 69.53 199.1, 32 197 M197.02 197 C153.11 195.73, 110.54 194.73, 32 197 M32 197 C9.88 196.92, -0.27 188.01, 0 165 M32 197 C11.07 198.12, -2.09 186.25, 0 165 M0 165 C0.47 127.57, 1.75 88.97, 0 32 M0 165 C-0.76 129.92, -0.82 94.96, 0 32 M0 32 C1.35 11.56, 12.41 0.97, 32 0 M0 32 C-1.14 10.47, 10.84 -1.56, 32 0" stroke="#1e1e1e" stroke-width="1" fill="none"></path></g><g transform="translate(545.9376069865134 95.36702551043095) rotate(0 73.77996826171875 17.5)"><text x="0" y="0" font-family="Virgil, Segoe UI Emoji" font-size="28px" fill="#1e1e1e" text-anchor="start" style="white-space: pre;" direction="ltr" dominant-baseline="text-before-edge">UI Thread</text></g><g stroke-linecap="round" transform="translate(22.547718747836257 560.1203190458116) rotate(0 114.51040917500507 98.49999999999997)"><path d="M7.86 8.16 C7.86 8.16, 7.86 8.16, 7.86 8.16 M7.86 8.16 C7.86 8.16, 7.86 8.16, 7.86 8.16 M3.66 19.09 C5.41 16.45, 9.97 11.58, 18.1 2.48 M3.66 19.09 C7.01 14.97, 11.02 10.35, 18.1 2.48 M2.75 26.24 C7.41 18.9, 14.58 11.42, 24.4 1.33 M2.75 26.24 C6.29 20.97, 12 15.61, 24.4 1.33 M2.48 32.64 C13.52 19.43, 23.33 11.23, 30.7 0.18 M2.48 32.64 C10.7 24.84, 16.99 15.21, 30.7 0.18 M2.88 38.28 C9.62 27.01, 19.43 18.47, 34.37 2.05 M2.88 38.28 C9.93 31.92, 15 22.97, 34.37 2.05 M2.62 44.68 C16.03 30.01, 24.94 16.26, 39.36 2.41 M2.62 44.68 C14.55 31.31, 26.11 18.04, 39.36 2.41 M2.36 51.07 C10.09 39.59, 21.36 30.17, 45 2.02 M2.36 51.07 C16.77 32.84, 32.79 15.11, 45 2.02 M2.75 56.72 C10.94 46.11, 21.11 35.82, 49.99 2.38 M2.75 56.72 C19.51 39.45, 35.31 20.03, 49.99 2.38 M2.49 63.11 C19 43.2, 39.59 22.16, 55.63 1.98 M2.49 63.11 C17.96 45.37, 33.26 27.36, 55.63 1.98 M2.23 69.51 C23.77 43.83, 44.3 20.22, 60.62 2.34 M2.23 69.51 C17.49 51.71, 33.48 33.54, 60.62 2.34 M2.62 75.16 C21.18 54.06, 39.33 28.62, 66.26 1.95 M2.62 75.16 C18.84 55.54, 35.87 36.27, 66.26 1.95 M2.36 81.55 C21.29 57.61, 39.63 37.33, 71.25 2.31 M2.36 81.55 C22.47 58.79, 44.08 34.32, 71.25 2.31 M2.1 87.95 C19.58 71.32, 36.42 50.84, 76.89 1.91 M2.1 87.95 C21.32 64.88, 41.75 42.28, 76.89 1.91 M2.49 93.59 C25.09 66.97, 48.54 39.53, 81.88 2.27 M2.49 93.59 C22.34 72.61, 40.8 52.61, 81.88 2.27 M2.23 99.99 C21.27 76.46, 42.83 55.73, 87.52 1.88 M2.23 99.99 C29.5 70.71, 53.75 41.85, 87.52 1.88 M2.63 105.64 C31.43 75.14, 59.87 42.19, 92.51 2.24 M2.63 105.64 C31.72 72.1, 60.12 40.56, 92.51 2.24 M2.37 112.03 C39.23 69.99, 75.77 30.46, 98.15 1.85 M2.37 112.03 C32.67 78.12, 62.34 43.74, 98.15 1.85 M2.1 118.43 C30.71 84.71, 60.09 52.42, 103.14 2.21 M2.1 118.43 C42.78 70.18, 83.31 23.81, 103.14 2.21 M2.5 124.07 C30 94.09, 57.31 64.76, 108.78 1.81 M2.5 124.07 C28.36 93.44, 54.73 63.45, 108.78 1.81 M2.24 130.47 C32.06 95.44, 62.86 60.07, 113.77 2.17 M2.24 130.47 C45.91 80.28, 89.23 30.98, 113.77 2.17 M1.98 136.87 C25.31 110.11, 49.84 80.59, 119.41 1.78 M1.98 136.87 C28.15 108.59, 54.08 78.15, 119.41 1.78 M2.37 142.51 C31.2 111.81, 61.3 76.96, 124.4 2.14 M2.37 142.51 C50.23 88.26, 94.6 35.18, 124.4 2.14 M2.11 148.91 C47.36 96.24, 92.87 43.82, 130.04 1.74 M2.11 148.91 C44.73 100.53, 87.93 51.73, 130.04 1.74 M2.5 154.55 C37.64 116.57, 70.25 78.68, 135.03 2.1 M2.5 154.55 C46.68 103.49, 89.77 53.22, 135.03 2.1 M2.24 160.95 C47.14 106.1, 93.87 54.03, 140.67 1.71 M2.24 160.95 C33.11 125.88, 62.7 90.43, 140.67 1.71 M1.98 167.35 C37.39 127.09, 73.83 81.82, 145.66 2.07 M1.98 167.35 C59.91 103.71, 115.36 38.05, 145.66 2.07 M3.03 172.24 C56.71 114.25, 105.8 53.84, 150.65 2.43 M3.03 172.24 C57.58 108.91, 113.17 46.08, 150.65 2.43 M2.11 179.39 C53.75 121.77, 104.46 64.02, 156.29 2.03 M2.11 179.39 C60.38 110.53, 121.43 42.59, 156.29 2.03 M4.48 182.77 C55.02 124.3, 107.34 65.79, 161.28 2.39 M4.48 182.77 C65.1 114.26, 124.13 46.91, 161.28 2.39 M6.84 186.15 C41.11 145.49, 73.7 108.86, 166.92 2 M6.84 186.15 C57.23 128.42, 107.42 71.42, 166.92 2 M9.2 189.53 C74.02 119.26, 136.95 46.51, 171.91 2.36 M9.2 189.53 C48.83 141.21, 90.58 94.12, 171.91 2.36 M12.22 192.15 C74.6 121.13, 132.85 51.44, 177.55 1.96 M12.22 192.15 C53.7 145.51, 92.38 100.26, 177.55 1.96 M15.9 194.02 C72.15 130.15, 129.41 64.91, 182.54 2.32 M15.9 194.02 C76 125.89, 133.65 59.75, 182.54 2.32 M19.57 195.89 C76.86 130.77, 132.85 66.62, 188.18 1.93 M19.57 195.89 C55.42 153.06, 92.1 110.63, 188.18 1.93 M23.9 197 C57.35 154.75, 92.2 115.48, 193.17 2.29 M23.9 197 C66.81 149.44, 109.51 101.13, 193.17 2.29 M28.89 197.36 C96.68 122.43, 162.04 46.1, 198.81 1.9 M28.89 197.36 C92.31 123.71, 156 50.78, 198.81 1.9 M33.22 198.48 C82.96 140.64, 135.48 80.78, 203.8 2.26 M33.22 198.48 C75.42 148.8, 118.66 99.75, 203.8 2.26 M38.86 198.09 C82.65 147.65, 125.6 94.87, 208.13 3.37 M38.86 198.09 C75.66 156.29, 112.05 115.64, 208.13 3.37 M43.85 198.45 C98.92 132.59, 156.4 68.73, 213.11 3.73 M43.85 198.45 C92.35 144.42, 139.13 88.88, 213.11 3.73 M49.49 198.05 C86.65 156.77, 121.38 116.47, 216.79 5.6 M49.49 198.05 C101.46 139.95, 152.82 79.88, 216.79 5.6 M54.48 198.41 C104.04 141.09, 154.17 82.56, 219.81 8.22 M54.48 198.41 C87.96 159.56, 121.81 121.4, 219.81 8.22 M60.12 198.02 C122.14 127.04, 183.78 54.43, 223.48 10.09 M60.12 198.02 C99.56 155.92, 136.69 112.36, 223.48 10.09 M65.11 198.38 C104.79 152.99, 142.21 107.95, 225.85 13.47 M65.11 198.38 C112.22 145.24, 159.58 92, 225.85 13.47 M70.75 197.98 C105.37 158.36, 142.74 117.65, 226.9 18.36 M70.75 197.98 C102.87 162.27, 132.91 125.78, 226.9 18.36 M75.74 198.34 C111.16 158.09, 147.52 115.05, 227.95 23.25 M75.74 198.34 C130.79 136.94, 185.43 73.86, 227.95 23.25 M81.38 197.95 C120.63 153.89, 160.17 108.84, 228.34 28.89 M81.38 197.95 C115.31 159.25, 148.97 120.17, 228.34 28.89 M86.37 198.31 C115.25 163.7, 144.38 131.01, 230.05 33.03 M86.37 198.31 C120.91 160.43, 155.51 120.63, 230.05 33.03 M92.01 197.91 C143.38 137.62, 194.22 79.19, 229.79 39.42 M92.01 197.91 C122.15 163.6, 151.33 130.4, 229.79 39.42 M97 198.27 C141.84 146.04, 187.23 94.58, 230.18 45.07 M97 198.27 C135.27 154.83, 173.85 110.55, 230.18 45.07 M102.64 197.88 C136.09 162.52, 166.63 124.19, 229.92 51.46 M102.64 197.88 C128.64 169.39, 154.66 139.77, 229.92 51.46 M107.63 198.24 C139.24 159.8, 171.99 124.28, 230.31 57.11 M107.63 198.24 C146.03 154.7, 184 111.6, 230.31 57.11 M112.62 198.6 C160.06 148.21, 205.44 95.22, 230.05 63.51 M112.62 198.6 C152.82 152.57, 192.13 106.6, 230.05 63.51 M118.26 198.2 C147.64 167.89, 171.89 135.52, 229.79 69.9 M118.26 198.2 C141.19 171.1, 162.51 145.62, 229.79 69.9 M123.25 198.56 C152.9 166.39, 184.01 129.02, 230.19 75.55 M123.25 198.56 C158.74 157.81, 195.6 115.21, 230.19 75.55 M128.89 198.17 C149.88 174.54, 172.85 147.12, 229.92 81.94 M128.89 198.17 C161.26 161.53, 194.08 124.25, 229.92 81.94 M133.88 198.53 C170.91 154.82, 209.76 112.12, 230.32 87.59 M133.88 198.53 C153.6 177.26, 171.64 153.96, 230.32 87.59 M139.52 198.13 C169.64 161.72, 203.41 125.18, 230.06 93.98 M139.52 198.13 C170.21 164.82, 199.44 129.26, 230.06 93.98 M144.51 198.49 C162.73 174.87, 184.02 156.38, 229.8 100.38 M144.51 198.49 C169.61 169.53, 194.65 141.97, 229.8 100.38 M150.15 198.1 C170.82 173.42, 191.02 147.55, 230.19 106.03 M150.15 198.1 C176.05 167.85, 202.13 138.47, 230.19 106.03 M155.14 198.46 C173.35 178.79, 192 155.01, 229.93 112.42 M155.14 198.46 C174.16 176.33, 193.25 154.91, 229.93 112.42 M160.78 198.07 C178.38 180.22, 192.75 160.28, 230.32 118.07 M160.78 198.07 C182.02 173.13, 204.34 147.25, 230.32 118.07 M165.77 198.43 C188.33 169.95, 210.99 145.24, 230.06 124.46 M165.77 198.43 C185.29 174.96, 204.84 154.09, 230.06 124.46 M171.41 198.03 C194.26 171.85, 213.11 149.8, 229.8 130.86 M171.41 198.03 C193.77 173.62, 213.59 150.44, 229.8 130.86 M176.4 198.39 C188.01 184.26, 198.7 172.6, 230.2 136.51 M176.4 198.39 C195.63 177.28, 213.35 155.46, 230.2 136.51 M182.04 198 C194.07 185.33, 205.85 170.41, 229.93 142.9 M182.04 198 C194.3 184.32, 204.81 171.1, 229.93 142.9 M187.03 198.36 C202.17 182.73, 216.51 165.78, 230.33 148.55 M187.03 198.36 C199.31 186.03, 209.91 171.66, 230.33 148.55 M192.67 197.96 C204.86 186.27, 213.67 172.42, 230.07 154.94 M192.67 197.96 C204.68 184.18, 217.73 168.55, 230.07 154.94 M198.31 197.57 C210.92 184.44, 221.6 173.51, 229.81 161.34 M198.31 197.57 C210.74 183.69, 222.81 169.15, 229.81 161.34 M203.96 197.17 C212.91 187.7, 219.82 176.77, 230.86 166.23 M203.96 197.17 C215.3 185.14, 225.17 172.62, 230.86 166.23 M210.91 195.27 C218.91 185.06, 223.94 177.07, 229.94 173.38 M210.91 195.27 C216.6 189.75, 221.13 183.66, 229.94 173.38" stroke="#a5d8ff" stroke-width="0.5" fill="none"></path><path d="M32 0 M32 0 C79.51 -1.8, 129.93 1.13, 197.02 0 M32 0 C93 0.46, 152.7 -0.55, 197.02 0 M197.02 0 C217.26 1.65, 227.32 11.18, 229.02 32 M197.02 0 C219.05 -1.98, 229.28 11.01, 229.02 32 M229.02 32 C230.03 74.36, 229.42 116.94, 229.02 165 M229.02 32 C230.96 84.46, 230.24 138.37, 229.02 165 M229.02 165 C228.46 185.45, 217.01 195.44, 197.02 197 M229.02 165 C227.4 186.03, 217.55 197.71, 197.02 197 M197.02 197 C146.14 196.35, 93.13 196.4, 32 197 M197.02 197 C141.77 197.49, 86.7 197.9, 32 197 M32 197 C9.3 198.86, 0.51 186.64, 0 165 M32 197 C11.85 198.9, 1.71 187.68, 0 165 M0 165 C-2.38 129.4, -2 94.7, 0 32 M0 165 C-0.8 136.71, 0.35 110.35, 0 32 M0 32 C-1.03 11.85, 12.44 -1.35, 32 0 M0 32 C-1.74 10.15, 12.04 0.35, 32 0" stroke="#1e1e1e" stroke-width="1" fill="none"></path></g><g transform="translate(39.09923747904725 640.3919070605701) rotate(0 100.86995697021484 17.5)"><text x="0" y="0" font-family="Virgil, Segoe UI Emoji" font-size="28px" fill="#1e1e1e" text-anchor="start" style="white-space: pre;" direction="ltr" dominant-baseline="text-before-edge">Worker Thread</text></g><g stroke-linecap="round" transform="translate(529.1660951356608 560.116374541269) rotate(0 114.51040917500501 98.5)"><path d="M7.86 8.16 C7.86 8.16, 7.86 8.16, 7.86 8.16 M7.86 8.16 C7.86 8.16, 7.86 8.16, 7.86 8.16 M3.66 19.09 C7.01 13.4, 11.41 9.25, 18.1 2.48 M3.66 19.09 C8.13 15, 10.35 10.13, 18.1 2.48 M2.75 26.24 C6.32 19.92, 12.9 14.76, 24.4 1.33 M2.75 26.24 C9.33 18.12, 15.57 12.07, 24.4 1.33 M2.48 32.64 C8.06 24.36, 17.82 17.63, 30.7 0.18 M2.48 32.64 C8.36 25.37, 13.64 19.04, 30.7 0.18 M2.88 38.28 C15.05 25.04, 25.5 14.64, 34.37 2.05 M2.88 38.28 C14.72 25.42, 25.51 11.54, 34.37 2.05 M2.62 44.68 C13.04 35.22, 20.84 22.74, 39.36 2.41 M2.62 44.68 C16.89 28.6, 29.51 12.76, 39.36 2.41 M2.36 51.07 C19.32 30.49, 37.82 11.89, 45 2.02 M2.36 51.07 C13.32 38.15, 25.55 24.47, 45 2.02 M2.75 56.72 C14.32 46.68, 23.95 34.11, 49.99 2.38 M2.75 56.72 C15.25 43.85, 26.31 30.19, 49.99 2.38 M2.49 63.11 C19 44.84, 36.79 24.53, 55.63 1.98 M2.49 63.11 C17.7 46.6, 31.57 28.69, 55.63 1.98 M2.23 69.51 C17.45 53.05, 31.43 38.07, 60.62 2.34 M2.23 69.51 C18.59 50.36, 33.64 31.61, 60.62 2.34 M2.62 75.16 C23.55 55.09, 41.39 32.88, 66.26 1.95 M2.62 75.16 C20.94 55.46, 38.79 33.42, 66.26 1.95 M2.36 81.55 C19.88 61.25, 40.15 38.38, 71.25 2.31 M2.36 81.55 C17.49 63.96, 33.09 45.9, 71.25 2.31 M2.1 87.95 C30.72 56.46, 56.64 27.9, 76.89 1.91 M2.1 87.95 C25.61 61.28, 47.2 33.65, 76.89 1.91 M2.49 93.59 C26.86 68.41, 46.28 41.45, 81.88 2.27 M2.49 93.59 C33.2 57.42, 64.75 21.7, 81.88 2.27 M2.23 99.99 C31.83 64.29, 60.39 31.78, 87.52 1.88 M2.23 99.99 C35.3 60.74, 68.79 23.21, 87.52 1.88 M2.63 105.64 C35.94 69.25, 68.78 31.05, 92.51 2.24 M2.63 105.64 C39.52 65.35, 73.95 24.6, 92.51 2.24 M2.37 112.03 C21.92 91.44, 44.73 65.16, 98.15 1.85 M2.37 112.03 C30.97 78.72, 61.65 44.95, 98.15 1.85 M2.1 118.43 C27.51 88.02, 53.86 60.65, 103.14 2.21 M2.1 118.43 C41.17 73.77, 80.61 27.74, 103.14 2.21 M2.5 124.07 C30.99 87.65, 63.56 52.78, 108.78 1.81 M2.5 124.07 C30.31 93.67, 56.67 61.89, 108.78 1.81 M2.24 130.47 C33.22 94.41, 64.11 56.57, 113.77 2.17 M2.24 130.47 C27.6 101.13, 52.39 70.14, 113.77 2.17 M1.98 136.87 C27.97 102.95, 57.32 74.11, 119.41 1.78 M1.98 136.87 C44 87.99, 86.17 40.53, 119.41 1.78 M2.37 142.51 C26.28 114.51, 52.92 84.31, 124.4 2.14 M2.37 142.51 C44.57 93.59, 84.48 45.49, 124.4 2.14 M2.11 148.91 C35.73 107.36, 72.1 67.82, 130.04 1.74 M2.11 148.91 C49.19 95.28, 94.47 41.54, 130.04 1.74 M2.5 154.55 C44.87 105.9, 87.62 58.4, 135.03 2.1 M2.5 154.55 C30.49 120.79, 60.44 87.04, 135.03 2.1 M2.24 160.95 C48.32 107.37, 97.03 50.05, 140.67 1.71 M2.24 160.95 C50.27 105.77, 98.84 49.29, 140.67 1.71 M1.98 167.35 C54.54 108.29, 104.62 45.19, 145.66 2.07 M1.98 167.35 C53.23 109.21, 104.88 51.37, 145.66 2.07 M3.03 172.24 C62.75 104.36, 120.26 35.88, 150.65 2.43 M3.03 172.24 C37.05 132.37, 71.28 92.71, 150.65 2.43 M2.11 179.39 C40.35 135.35, 76.84 93.95, 156.29 2.03 M2.11 179.39 C46.66 127.04, 90.75 75.48, 156.29 2.03 M4.48 182.77 C44.52 135.08, 86.38 89.65, 161.28 2.39 M4.48 182.77 C39.2 143.25, 73.4 103.27, 161.28 2.39 M6.84 186.15 C57.96 130.78, 105.36 71.06, 166.92 2 M6.84 186.15 C64.53 118.55, 123.92 51.36, 166.92 2 M9.2 189.53 C69.49 121.05, 127.78 52.85, 171.91 2.36 M9.2 189.53 C74.12 116.75, 137.82 42.49, 171.91 2.36 M12.22 192.15 C54.88 144.03, 99.21 94.52, 177.55 1.96 M12.22 192.15 C76.55 116.84, 141.58 43.89, 177.55 1.96 M15.9 194.02 C59 145.58, 99.06 96.52, 182.54 2.32 M15.9 194.02 C69.57 132.85, 122.79 71.67, 182.54 2.32 M19.57 195.89 C57.69 154.2, 97.38 107.72, 188.18 1.93 M19.57 195.89 C78.18 129.62, 134.6 62.89, 188.18 1.93 M23.9 197 C65.53 147.51, 106.03 100.97, 193.17 2.29 M23.9 197 C58.98 154.34, 96.11 111.08, 193.17 2.29 M28.89 197.36 C80.98 137.95, 132.96 79.2, 198.81 1.9 M28.89 197.36 C75.32 143.13, 121.89 88.28, 198.81 1.9 M33.22 198.48 C96.38 124.77, 157.32 52.06, 203.8 2.26 M33.22 198.48 C69.46 156.24, 108.37 112.05, 203.8 2.26 M38.86 198.09 C80.61 149.43, 122.63 102.27, 208.13 3.37 M38.86 198.09 C80.21 148.82, 120.9 100.5, 208.13 3.37 M43.85 198.45 C88.34 149.9, 133.37 97.71, 213.11 3.73 M43.85 198.45 C92.57 141.57, 142.08 84.49, 213.11 3.73 M49.49 198.05 C105.93 134.64, 162.23 68.85, 216.79 5.6 M49.49 198.05 C108.91 129.08, 169.29 60.8, 216.79 5.6 M54.48 198.41 C95.71 151.47, 134.84 105.13, 219.81 8.22 M54.48 198.41 C108.44 136.8, 163.9 74.51, 219.81 8.22 M60.12 198.02 C111.4 139.26, 158.46 82.05, 223.48 10.09 M60.12 198.02 C111.59 141.81, 161.16 84.62, 223.48 10.09 M65.11 198.38 C105.19 156.41, 141.88 112.69, 225.85 13.47 M65.11 198.38 C102.36 154.98, 141.31 111.74, 225.85 13.47 M70.75 197.98 C110.46 153.79, 148.41 109.6, 226.9 18.36 M70.75 197.98 C109.38 154.23, 148.97 108.53, 226.9 18.36 M75.74 198.34 C114.37 150.63, 156.66 104.55, 227.95 23.25 M75.74 198.34 C116.75 150.24, 157.08 104.19, 227.95 23.25 M81.38 197.95 C122.16 149.51, 164.1 103.27, 228.34 28.89 M81.38 197.95 C132.55 139.43, 181.75 82.03, 228.34 28.89 M86.37 198.31 C136.48 139.59, 186.47 81.28, 230.05 33.03 M86.37 198.31 C129.04 150.03, 168.47 104.27, 230.05 33.03 M92.01 197.91 C134.99 149.94, 179.71 99.92, 229.79 39.42 M92.01 197.91 C146.67 136.24, 202.66 74.2, 229.79 39.42 M97 198.27 C128.51 162.88, 155.5 131.23, 230.18 45.07 M97 198.27 C135.8 154.01, 173.87 110.11, 230.18 45.07 M102.64 197.88 C133.3 159.26, 167.25 120.56, 229.92 51.46 M102.64 197.88 C129.69 165.1, 156.51 133.7, 229.92 51.46 M107.63 198.24 C153.76 145.62, 201.45 90.81, 230.31 57.11 M107.63 198.24 C144.87 153.84, 180.86 111.32, 230.31 57.11 M112.62 198.6 C137.31 171.11, 161.55 145.95, 230.05 63.51 M112.62 198.6 C143.03 161.36, 175.15 125.1, 230.05 63.51 M118.26 198.2 C146.42 165.46, 174.56 132.63, 229.79 69.9 M118.26 198.2 C147.81 163.52, 178.71 129.21, 229.79 69.9 M123.25 198.56 C151.82 165.17, 182.99 130.08, 230.19 75.55 M123.25 198.56 C145.47 174.54, 166.73 147.72, 230.19 75.55 M128.89 198.17 C155.31 167.71, 180.33 141.25, 229.92 81.94 M128.89 198.17 C167.56 155.06, 206.3 111.05, 229.92 81.94 M133.88 198.53 C166.53 158.74, 198.41 123.19, 230.32 87.59 M133.88 198.53 C168.17 159.59, 202.34 117.39, 230.32 87.59 M139.52 198.13 C166.86 169.26, 193.5 138.88, 230.06 93.98 M139.52 198.13 C167.14 165.88, 196.24 131.51, 230.06 93.98 M144.51 198.49 C171.88 163.67, 203.39 128.79, 229.8 100.38 M144.51 198.49 C163.16 176.53, 183.65 152.07, 229.8 100.38 M150.15 198.1 C175.5 170.51, 195.48 143.88, 230.19 106.03 M150.15 198.1 C168.26 178.41, 187.16 157.88, 230.19 106.03 M155.14 198.46 C181.58 167.36, 206.73 137.67, 229.93 112.42 M155.14 198.46 C170.12 180.28, 185.96 163.49, 229.93 112.42 M160.78 198.07 C178.2 180.32, 195.82 159.97, 230.32 118.07 M160.78 198.07 C183.96 169.33, 208.92 141.33, 230.32 118.07 M165.77 198.43 C182.65 179.04, 204.04 155.04, 230.06 124.46 M165.77 198.43 C181.41 180.88, 195.76 164.6, 230.06 124.46 M171.41 198.03 C194.16 174.28, 216.34 145.9, 229.8 130.86 M171.41 198.03 C194.33 171.61, 216.08 146.39, 229.8 130.86 M176.4 198.39 C188.78 183.97, 200.05 173.93, 230.2 136.51 M176.4 198.39 C194.62 177.48, 211.44 157.85, 230.2 136.51 M182.04 198 C199.83 178.29, 218.69 156.99, 229.93 142.9 M182.04 198 C197.73 180.76, 213.92 163.14, 229.93 142.9 M187.03 198.36 C197.26 184.08, 209.23 174.04, 230.33 148.55 M187.03 198.36 C201.49 181.56, 214.98 166.26, 230.33 148.55 M192.67 197.96 C204.76 181.92, 219.39 166.43, 230.07 154.94 M192.67 197.96 C200.37 189.07, 209.98 178.12, 230.07 154.94 M198.31 197.57 C204.76 189.66, 214.85 180.04, 229.81 161.34 M198.31 197.57 C208.49 187.23, 218.26 175.78, 229.81 161.34 M203.96 197.17 C212.77 184.78, 225.2 174.55, 230.86 166.23 M203.96 197.17 C208.87 190.24, 214.8 184.32, 230.86 166.23 M210.91 195.27 C219.68 186.91, 226.17 180.58, 229.94 173.38 M210.91 195.27 C217.86 188.3, 223.81 179.77, 229.94 173.38" stroke="#a5d8ff" stroke-width="0.5" fill="none"></path><path d="M32 0 M32 0 C89.52 0.11, 141.68 -1.1, 197.02 0 M32 0 C84.01 1.8, 137.02 1.09, 197.02 0 M197.02 0 C217.22 -0.41, 229.96 12.61, 229.02 32 M197.02 0 C220.06 0.82, 229.65 11.81, 229.02 32 M229.02 32 C230.1 59.3, 229.36 85.45, 229.02 165 M229.02 32 C228.91 77.77, 227.71 124.33, 229.02 165 M229.02 165 C230.06 187.93, 219.34 198.87, 197.02 197 M229.02 165 C226.83 186.22, 220.43 198.44, 197.02 197 M197.02 197 C146.57 197.55, 92.59 194.95, 32 197 M197.02 197 C160.1 196.12, 123.89 197.03, 32 197 M32 197 C10.4 198.67, 0.35 187.31, 0 165 M32 197 C8.58 196.92, -0.37 184.08, 0 165 M0 165 C1 133.63, -0.21 103.71, 0 32 M0 165 C0.12 137.66, 1.4 111.51, 0 32 M0 32 C1.74 11.63, 9.68 -0.17, 32 0 M0 32 C0.17 9.1, 8.51 -1.98, 32 0" stroke="#1e1e1e" stroke-width="1" fill="none"></path></g><g transform="translate(545.7176138668717 640.3879625560276) rotate(0 100.86995697021484 17.5)"><text x="0" y="0" font-family="Virgil, Segoe UI Emoji" font-size="28px" fill="#1e1e1e" text-anchor="start" style="white-space: pre;" direction="ltr" dominant-baseline="text-before-edge">Worker Thread</text></g><g stroke-linecap="round"><g transform="translate(115.96589399062486 230.86021296953555) rotate(0 -1.5859897713645807 151.06961040002847)"><path d="M-0.16 1.12 C-0.48 51.01, -2 250.15, -2.23 300.18 M-1.71 0.66 C-2.13 50.65, -3 251.71, -3.01 301.48" stroke="#1e1e1e" stroke-width="1" fill="none"></path></g><g transform="translate(115.96589399062486 230.86021296953555) rotate(0 -1.5859897713645807 151.06961040002847)"><path d="M-11.33 273.79 C-10.97 282.71, -6.34 289.5, -4.92 301.34 M-12.73 273.79 C-10.02 282.09, -7.57 290.12, -2.95 300.63" stroke="#1e1e1e" stroke-width="1" fill="none"></path></g><g transform="translate(115.96589399062486 230.86021296953555) rotate(0 -1.5859897713645807 151.06961040002847)"><path d="M9.19 273.85 C3.94 282.72, 2.96 289.5, -4.92 301.34 M7.79 273.85 C4.23 281.95, 0.42 289.96, -2.95 300.63" stroke="#1e1e1e" stroke-width="1" fill="none"></path></g></g><mask></mask><g stroke-linecap="round"><g transform="translate(634.3837902063719 539.4491569384824) rotate(0 -1.3625080160521748 -148.7454765317052)"><path d="M0.49 -0.55 C0.11 -50.19, -2.76 -247.65, -3.21 -297.41 M-0.72 1.78 C-0.64 -48.26, -0.59 -249.25, -0.95 -299.27" stroke="#1e1e1e" stroke-width="1" fill="none"></path></g><g transform="translate(634.3837902063719 539.4491569384824) rotate(0 -1.3625080160521748 -148.7454765317052)"><path d="M8.48 -272.54 C7.81 -277.09, 2.75 -284.26, -1.29 -300.87 M8.63 -271.36 C5.59 -279.7, 2.5 -288.88, -0.11 -299.8" stroke="#1e1e1e" stroke-width="1" fill="none"></path></g><g transform="translate(634.3837902063719 539.4491569384824) rotate(0 -1.3625080160521748 -148.7454765317052)"><path d="M-12.04 -272.48 C-8.15 -277.12, -8.65 -284.31, -1.29 -300.87 M-11.89 -271.3 C-8.66 -279.51, -5.48 -288.7, -0.11 -299.8" stroke="#1e1e1e" stroke-width="1" fill="none"></path></g></g><mask></mask><g stroke-linecap="round" transform="translate(113.4181752427886 307.2917754046207) rotate(0 101.90874991344691 94.9025233568974)"><path d="M17.45 78.77 C17.45 78.77, 17.45 78.77, 17.45 78.77 M17.45 78.77 C17.45 78.77, 17.45 78.77, 17.45 78.77 M8.66 94.98 C19.44 82.62, 34.21 64.58, 42.78 55.73 M8.66 94.98 C19.04 84.27, 27.65 72.54, 42.78 55.73 M9.05 100.62 C33.43 73.92, 54.93 47.06, 68.76 31.94 M9.05 100.62 C22.72 85.59, 37.21 68.12, 68.76 31.94 M11.42 104 C36.41 73.85, 61.96 44.05, 94.74 8.15 M11.42 104 C43.49 66.81, 75.56 29.56, 94.74 8.15 M14.44 106.63 C36.59 80.96, 57.64 59.05, 97.76 10.78 M14.44 106.63 C43.25 71.93, 72.86 37.89, 97.76 10.78 M16.8 110 C38.79 83.64, 61.89 56.11, 104.71 8.87 M16.8 110 C50.14 71.86, 84.23 34.29, 104.71 8.87 M19.82 112.63 C41.29 88.59, 60.3 65.66, 109.7 9.23 M19.82 112.63 C44.73 85.71, 70.3 55.73, 109.7 9.23 M22.18 116.01 C44.95 89.26, 70.43 57.28, 112.72 11.86 M22.18 116.01 C44.08 91.78, 64.3 68.23, 112.72 11.86 M25.2 118.63 C59.09 78.82, 90.4 43.27, 115.74 14.48 M25.2 118.63 C54.9 83.2, 85.18 49.33, 115.74 14.48 M28.22 121.26 C49.79 93.72, 74.53 67.86, 118.75 17.11 M28.22 121.26 C47.34 100.3, 67.48 77.62, 118.75 17.11 M31.24 123.88 C57.53 93.35, 79.95 66.67, 121.77 19.73 M31.24 123.88 C59.74 92.66, 86.91 59.98, 121.77 19.73 M34.26 126.5 C60.8 94.95, 87.28 63.08, 124.79 22.35 M34.26 126.5 C69.14 87.11, 105.12 46.76, 124.79 22.35 M37.28 129.13 C71.72 92.75, 103.35 51.64, 128.47 24.22 M37.28 129.13 C69.12 92.33, 100.26 57.06, 128.47 24.22 M40.29 131.75 C75.18 88.6, 112.84 48.2, 131.49 26.85 M40.29 131.75 C70.61 96.7, 99.8 62.42, 131.49 26.85 M43.31 134.38 C79.37 94.66, 112.5 53.43, 133.85 30.23 M43.31 134.38 C62.28 111.97, 81.9 89.84, 133.85 30.23 M45.68 137.76 C71.78 109.88, 92.95 83.33, 136.87 32.85 M45.68 137.76 C65.4 115.38, 85.55 94.16, 136.87 32.85 M48.69 140.38 C76.72 105.98, 109.01 74.04, 139.89 35.48 M48.69 140.38 C70.44 115.38, 93.21 91.21, 139.89 35.48 M51.71 143 C82.02 106.98, 113.27 72.84, 142.91 38.1 M51.71 143 C78.14 112.33, 106.75 79.62, 142.91 38.1 M54.73 145.63 C79.62 118.44, 100.92 92.02, 145.92 40.72 M54.73 145.63 C72.89 124.46, 91.77 101.77, 145.92 40.72 M57.75 148.25 C77.95 123.5, 97.79 102.14, 148.94 43.35 M57.75 148.25 C80.1 120.9, 102.81 94.48, 148.94 43.35 M60.77 150.88 C88.27 114.85, 120.85 84.28, 151.31 46.73 M60.77 150.88 C82.82 124.13, 106.72 98.64, 151.31 46.73 M63.79 153.5 C96.05 111.76, 131.59 72.68, 154.32 49.35 M63.79 153.5 C84.07 127.9, 107.42 104.26, 154.32 49.35 M66.15 156.88 C98.57 117.51, 133.79 78.2, 157.34 51.98 M66.15 156.88 C97.43 121.4, 129.44 84.77, 157.34 51.98 M69.17 159.5 C93.69 129.19, 121.35 96.21, 160.36 54.6 M69.17 159.5 C87.7 136.18, 108.93 113.49, 160.36 54.6 M72.19 162.13 C96.41 132.26, 120.86 106.4, 163.38 57.22 M72.19 162.13 C107.73 122.06, 144.88 79.01, 163.38 57.22 M75.21 164.75 C98.85 138.27, 123.76 110.34, 166.4 59.85 M75.21 164.75 C98.36 139.38, 122.92 110.7, 166.4 59.85 M78.23 167.38 C102.5 139.77, 125.63 116.09, 169.42 62.47 M78.23 167.38 C113.32 126.9, 149.21 85.82, 169.42 62.47 M81.25 170 C101.25 147.14, 120.52 124.76, 171.78 65.85 M81.25 170 C98.85 148.5, 118 126.89, 171.78 65.85 M84.26 172.63 C112.62 141.04, 143.49 104.48, 174.8 68.48 M84.26 172.63 C107.05 146.07, 128.28 121.34, 174.8 68.48 M87.28 175.25 C117.28 141.74, 146.31 108.81, 177.82 71.1 M87.28 175.25 C107.74 152.51, 127.52 127.92, 177.82 71.1 M90.3 177.87 C112.66 153.17, 136.7 123.8, 180.84 73.72 M90.3 177.87 C122.51 142.59, 151.53 109.51, 180.84 73.72 M93.98 179.74 C122.23 145.99, 152.65 109.79, 183.86 76.35 M93.98 179.74 C118.81 150.52, 142.57 122.12, 183.86 76.35 M97 182.37 C115.91 157.36, 137.92 133.67, 186.88 78.97 M97 182.37 C131.36 144.59, 163.96 106.92, 186.88 78.97 M100.67 184.24 C128.19 153.52, 154.35 122.33, 189.24 82.35 M100.67 184.24 C134.91 144.25, 169.84 104.58, 189.24 82.35 M106.97 183.09 C137.88 147.23, 171.19 110.11, 192.26 84.98 M106.97 183.09 C132.92 151.01, 159.81 122.09, 192.26 84.98 M119.83 174.39 C140.89 154.48, 156.09 130.09, 195.28 87.6 M119.83 174.39 C139.54 152.05, 157.99 129.37, 195.28 87.6 M147.78 148.34 C168.21 124.3, 188.26 101.99, 196.98 91.73 M147.78 148.34 C161.99 132.48, 175.03 115.92, 196.98 91.73 M175.07 123.04 C181.41 117.82, 185.59 111.48, 197.38 97.38 M175.07 123.04 C182.79 112.89, 193.41 102.2, 197.38 97.38" stroke="#ffc9c9" stroke-width="0.5" fill="none"></path><path d="M127.5 23.75 M127.5 23.75 C148.52 42.42, 166.97 58.88, 178.32 71.25 M127.5 23.75 C139.58 35.25, 152.07 46.84, 178.32 71.25 M178.32 71.25 C204.93 95.3, 204.98 95.66, 178.32 118.75 M178.32 71.25 C201.65 95.84, 204.32 96.69, 178.32 118.75 M178.32 118.75 C167.67 129.13, 154.82 136.87, 127.5 166.06 M178.32 118.75 C167.15 128.27, 154.68 140.17, 127.5 166.06 M127.5 166.06 C102.65 190.03, 101.29 191.22, 76.5 166.06 M127.5 166.06 C101.85 188.42, 102.75 191.09, 76.5 166.06 M76.5 166.06 C60.41 150.44, 45.39 138.32, 25.5 118.75 M76.5 166.06 C62.57 153.49, 50.13 142.01, 25.5 118.75 M25.5 118.75 C-1.9 95.06, -0.59 94.3, 25.5 71.25 M25.5 118.75 C0.82 93.53, 1.73 93.2, 25.5 71.25 M25.5 71.25 C44.21 53.07, 63.93 34.66, 76.5 23.75 M25.5 71.25 C41.14 54.99, 58.75 40.22, 76.5 23.75 M76.5 23.75 C103.5 -1.76, 101.83 1.32, 127.5 23.75 M76.5 23.75 C103.17 1.49, 101.15 -0.97, 127.5 23.75" stroke="#1e1e1e" stroke-width="1" fill="none"></path></g><g transform="translate(175.8372845647748 386.27105658754203) rotate(0 40.501991271972656 17.5)"><text x="0" y="0" font-family="Virgil, Segoe UI Emoji" font-size="28px" fill="#1e1e1e" text-anchor="start" style="white-space: pre;" direction="ltr" dominant-baseline="text-before-edge">Image</text></g><g transform="translate(135.07378459939616 274.1714316827505) rotate(0 79.25396728515625 17.5)"><text x="0" y="0" font-family="Virgil, Segoe UI Emoji" font-size="28px" fill="#1e1e1e" text-anchor="start" style="white-space: pre;" direction="ltr" dominant-baseline="text-before-edge">Pre-process</text></g><g transform="translate(643.6409640351308 271.29685565752425) rotate(0 143.70994567871094 17.5)"><text x="0" y="0" font-family="Virgil, Segoe UI Emoji" font-size="28px" fill="#1e1e1e" text-anchor="start" style="white-space: pre;" direction="ltr" dominant-baseline="text-before-edge">Pre-process complete</text></g><g stroke-linecap="round" transform="translate(640.6444595629673 348.91198794999065) rotate(0 64.14742252727308 59.73728722852306)"><path d="M10.63 50.31 C10.63 50.31, 10.63 50.31, 10.63 50.31 M10.63 50.31 C10.63 50.31, 10.63 50.31, 10.63 50.31 M5.77 61.99 C12.59 51.87, 23.6 42.63, 34.64 28.79 M5.77 61.99 C16.56 48.2, 28.86 36.31, 34.64 28.79 M7.48 66.13 C19.64 52.13, 30.51 39.3, 58.65 7.26 M7.48 66.13 C23.61 48.7, 38.38 31.61, 58.65 7.26 M10.5 68.75 C24.47 52.01, 34.03 40.61, 64.3 6.87 M10.5 68.75 C25.66 52.34, 40.42 34.06, 64.3 6.87 M12.86 72.13 C35.03 48.99, 55.75 24.25, 69.94 6.47 M12.86 72.13 C32.38 48.69, 53.15 25.44, 69.94 6.47 M15.88 74.76 C35.13 54.03, 56.19 31.65, 72.96 9.1 M15.88 74.76 C38.36 49.71, 60.86 22.63, 72.96 9.1 M18.9 77.38 C36.25 55.73, 56.53 37.79, 76.63 10.97 M18.9 77.38 C35.8 56, 52.62 37.14, 76.63 10.97 M21.92 80 C43.09 53.34, 64.05 28.99, 79.65 13.59 M21.92 80 C43.69 54.22, 66.88 27.93, 79.65 13.59 M24.94 82.63 C40.88 64.92, 53.93 47.34, 82.67 16.21 M24.94 82.63 C43.22 60.19, 64.23 38.16, 82.67 16.21 M27.96 85.25 C51.39 58.07, 75.47 33.69, 85.69 18.84 M27.96 85.25 C50 59.63, 72.12 33.07, 85.69 18.84 M30.98 87.88 C52.6 63.7, 71.31 39.45, 88.71 21.46 M30.98 87.88 C47.21 68.01, 64.92 48.09, 88.71 21.46 M33.99 90.5 C46.94 74.31, 60.09 62.83, 91.07 24.84 M33.99 90.5 C52.45 69.02, 70.66 46.69, 91.07 24.84 M37.01 93.13 C59.38 69.57, 79.26 47.34, 94.09 27.47 M37.01 93.13 C58.26 67.59, 80.62 41.79, 94.09 27.47 M39.38 96.5 C59.71 73.81, 83.05 48.75, 97.11 30.09 M39.38 96.5 C54.23 80.73, 68.37 63.91, 97.11 30.09 M42.39 99.13 C62.64 78.05, 82.67 54.55, 100.13 32.71 M42.39 99.13 C57.94 83.01, 71.03 66.08, 100.13 32.71 M45.41 101.75 C63.13 81.22, 81.74 56.94, 102.49 36.09 M45.41 101.75 C66.56 76.68, 86.58 52.57, 102.49 36.09 M48.43 104.38 C59.18 89.28, 75.17 73.49, 105.51 38.72 M48.43 104.38 C64.9 84.86, 79.94 67.02, 105.51 38.72 M51.45 107 C67.96 91.85, 80.27 72.17, 108.53 41.34 M51.45 107 C63.58 92.28, 78.2 77.14, 108.53 41.34 M54.47 109.63 C67.66 92.74, 81.53 77.67, 111.55 43.97 M54.47 109.63 C72.09 89.21, 90.65 69.5, 111.55 43.97 M58.14 111.5 C74.62 91.99, 90.67 76.23, 113.91 47.34 M58.14 111.5 C76.09 88.71, 96.23 68.07, 113.91 47.34 M61.16 114.12 C75.88 98.74, 90.09 82.35, 116.93 49.97 M61.16 114.12 C80.73 90.91, 99.56 69.23, 116.93 49.97 M64.84 115.99 C77.23 101.74, 90.52 87.52, 119.95 52.59 M64.84 115.99 C83.73 93.79, 103.79 72.65, 119.95 52.59 M72.45 113.33 C84.36 99.97, 98.06 83.98, 122.97 55.22 M72.45 113.33 C92.01 90.38, 112.68 67.57, 122.97 55.22 M83.34 106.9 C96.6 91.06, 109.51 78.41, 124.67 59.35 M83.34 106.9 C94.7 94.25, 106.57 80.33, 124.67 59.35" stroke="#ffc9c9" stroke-width="0.5" fill="none"></path><path d="M81.25 15 M81.25 15 C87.71 23.48, 97.29 29, 112.04 45 M81.25 15 C89.73 23.99, 98.33 32.15, 112.04 45 M112.04 45 C128.96 61.76, 126.67 58.07, 112.04 75 M112.04 45 C129.56 58.6, 126.59 58.33, 112.04 75 M112.04 75 C106.2 83.76, 97.62 92, 81.25 104.47 M112.04 75 C100.86 84.27, 92 94.12, 81.25 104.47 M81.25 104.47 C65.23 118.71, 63.2 118.37, 48.75 104.47 M81.25 104.47 C66.65 117.77, 67.09 117.36, 48.75 104.47 M48.75 104.47 C39.78 95.65, 28.95 85.89, 16.25 75 M48.75 104.47 C42.28 98.23, 35.06 92.15, 16.25 75 M16.25 75 C-0.08 61.56, -1.55 60.99, 16.25 45 M16.25 75 C-0.36 61.5, 1.25 59.51, 16.25 45 M16.25 45 C27.61 35.46, 42.4 21.21, 48.75 15 M16.25 45 C23.42 36.96, 31.32 30.25, 48.75 15 M48.75 15 C66.35 1.39, 65.42 -1.8, 81.25 15 M48.75 15 C65.63 -0.67, 63.01 0.74, 81.25 15" stroke="#1e1e1e" stroke-width="1" fill="none"></path></g><g transform="translate(676.8527064972238 399.158083144161) rotate(0 28.49152374267578 11.015539835202645)"><text x="0" y="0" font-family="Virgil, Segoe UI Emoji" font-size="17.624863736324237px" fill="#1e1e1e" text-anchor="start" style="white-space: pre;" direction="ltr" dominant-baseline="text-before-edge">Mask 1</text></g><g stroke-linecap="round" transform="translate(769.7756676713379 348.864777627598) rotate(0 64.14742252727308 59.73728722852306)"><path d="M10.63 50.31 C10.63 50.31, 10.63 50.31, 10.63 50.31 M10.63 50.31 C10.63 50.31, 10.63 50.31, 10.63 50.31 M5.77 61.99 C13.88 55.11, 20.83 46.21, 34.64 28.79 M5.77 61.99 C14.95 50.47, 26.78 37.85, 34.64 28.79 M7.48 66.13 C22.07 53.42, 31.8 35, 58.65 7.26 M7.48 66.13 C19.39 50.82, 33.87 36.91, 58.65 7.26 M10.5 68.75 C25.69 53.53, 39.29 38.99, 64.3 6.87 M10.5 68.75 C25.95 49.45, 41.94 31.7, 64.3 6.87 M12.86 72.13 C24.66 56.75, 35.76 43.28, 69.94 6.47 M12.86 72.13 C24.62 59.11, 35.76 45.11, 69.94 6.47 M15.88 74.76 C34.51 49.66, 57.01 24.49, 72.96 9.1 M15.88 74.76 C35.23 52.38, 54.92 31.34, 72.96 9.1 M18.9 77.38 C39.61 54.88, 61.23 29.18, 76.63 10.97 M18.9 77.38 C38.37 55.38, 56.14 34.03, 76.63 10.97 M21.92 80 C37.73 63.67, 48.48 48.07, 79.65 13.59 M21.92 80 C33.75 63.37, 48.75 49.84, 79.65 13.59 M24.94 82.63 C39.44 66.98, 50.62 53.83, 82.67 16.21 M24.94 82.63 C43.32 61.97, 61.47 40.91, 82.67 16.21 M27.96 85.25 C40.53 67.78, 56.99 52.38, 85.69 18.84 M27.96 85.25 C40.73 68.71, 53.67 54.45, 85.69 18.84 M30.98 87.88 C51.65 62.3, 74.65 37.83, 88.71 21.46 M30.98 87.88 C53.01 62.03, 74.74 35.65, 88.71 21.46 M33.99 90.5 C56.81 65.19, 77.04 43.67, 91.07 24.84 M33.99 90.5 C54 68.3, 71.64 44.94, 91.07 24.84 M37.01 93.13 C51.44 78.77, 61.03 63.55, 94.09 27.47 M37.01 93.13 C59.48 67.9, 80.06 44.06, 94.09 27.47 M39.38 96.5 C62.73 69.89, 82.59 43.87, 97.11 30.09 M39.38 96.5 C54.37 79.07, 70.07 60.34, 97.11 30.09 M42.39 99.13 C56.07 80.57, 74.58 62.98, 100.13 32.71 M42.39 99.13 C57.97 81.24, 73.52 65.24, 100.13 32.71 M45.41 101.75 C63.11 79.68, 79.93 61.06, 102.49 36.09 M45.41 101.75 C59.78 83.52, 75.76 66.18, 102.49 36.09 M48.43 104.38 C62.78 90.31, 71.77 73.97, 105.51 38.72 M48.43 104.38 C60.88 89.7, 74.33 74.61, 105.51 38.72 M51.45 107 C69.01 90.77, 82.75 71.13, 108.53 41.34 M51.45 107 C68.52 87.56, 83.12 68.79, 108.53 41.34 M54.47 109.63 C71.34 91.99, 84.39 74.51, 111.55 43.97 M54.47 109.63 C65.85 96.34, 77.08 83.01, 111.55 43.97 M58.14 111.5 C76.68 89.62, 94.86 68.78, 113.91 47.34 M58.14 111.5 C73.82 94.7, 87.62 78.29, 113.91 47.34 M61.16 114.12 C79.5 91.28, 100.48 67.86, 116.93 49.97 M61.16 114.12 C79.46 92.82, 97.64 71.74, 116.93 49.97 M64.84 115.99 C85.34 92.85, 108.27 65.9, 119.95 52.59 M64.84 115.99 C85.96 91.58, 106.84 68.4, 119.95 52.59 M72.45 113.33 C83.52 99.95, 96.87 83.67, 122.97 55.22 M72.45 113.33 C87.51 97.64, 100.58 79.54, 122.97 55.22 M83.34 106.9 C93.6 95.17, 104.77 79.97, 124.67 59.35 M83.34 106.9 C91.46 96.11, 101.16 87.26, 124.67 59.35" stroke="#ffc9c9" stroke-width="0.5" fill="none"></path><path d="M81.25 15 M81.25 15 C92.16 25.5, 104.65 37.77, 112.04 45 M81.25 15 C93.36 26.05, 103.46 38.2, 112.04 45 M112.04 45 C129.35 61.9, 129.7 60.24, 112.04 75 M112.04 45 C126.07 59.45, 126.13 58.05, 112.04 75 M112.04 75 C102.78 83.98, 96.63 93.55, 81.25 104.47 M112.04 75 C101.48 85.14, 92.25 93.53, 81.25 104.47 M81.25 104.47 C64.77 120.06, 64.99 119.8, 48.75 104.47 M81.25 104.47 C66.78 121.17, 67.22 117.29, 48.75 104.47 M48.75 104.47 C38.65 93.72, 26.73 87.66, 16.25 75 M48.75 104.47 C41.72 99.57, 34.68 93.09, 16.25 75 M16.25 75 C-1.2 60.05, -1.54 61.99, 16.25 45 M16.25 75 C0.98 59.32, 1.7 59.18, 16.25 45 M16.25 45 C20.71 40.2, 28.72 34.55, 48.75 15 M16.25 45 C25.88 36.96, 35.43 28.18, 48.75 15 M48.75 15 C63.53 1.32, 64.39 0.73, 81.25 15 M48.75 15 C67.28 1.23, 66.53 1.94, 81.25 15" stroke="#1e1e1e" stroke-width="1" fill="none"></path></g><g transform="translate(807.4192303659363 397.67555706142656) rotate(0 32.376739501953125 11.015539835202645)"><text x="0" y="0" font-family="Virgil, Segoe UI Emoji" font-size="17.624863736324237px" fill="#1e1e1e" text-anchor="start" style="white-space: pre;" direction="ltr" dominant-baseline="text-before-edge">Mask 2</text></g><g stroke-linecap="round" transform="translate(962.060769234748 348.81756730520516) rotate(0 64.14742252727308 59.73728722852306)"><path d="M10.63 50.31 C10.63 50.31, 10.63 50.31, 10.63 50.31 M10.63 50.31 C10.63 50.31, 10.63 50.31, 10.63 50.31 M5.77 61.99 C13.18 54.67, 21.8 46.31, 34.64 28.79 M5.77 61.99 C14.63 52.35, 21.89 43.54, 34.64 28.79 M7.48 66.13 C17.19 50.59, 29.76 39.26, 58.65 7.26 M7.48 66.13 C19.16 54.65, 28.73 41.12, 58.65 7.26 M10.5 68.75 C29.64 49.05, 45.55 29.07, 64.3 6.87 M10.5 68.75 C28.77 47.99, 46.48 27.09, 64.3 6.87 M12.86 72.13 C30.18 50.46, 47.98 27.99, 69.94 6.47 M12.86 72.13 C27.61 53.85, 44.48 37.42, 69.94 6.47 M15.88 74.76 C34.04 52.45, 52.98 33.36, 72.96 9.1 M15.88 74.76 C32.13 57.45, 47.37 38.79, 72.96 9.1 M18.9 77.38 C33.24 60.43, 48.91 42.41, 76.63 10.97 M18.9 77.38 C32.61 60.59, 47.56 43.76, 76.63 10.97 M21.92 80 C41.05 56.22, 62.52 32.5, 79.65 13.59 M21.92 80 C45.11 56.3, 65.14 30.78, 79.65 13.59 M24.94 82.63 C41.32 64.19, 57.9 44.99, 82.67 16.21 M24.94 82.63 C46.4 58.17, 67.19 32.69, 82.67 16.21 M27.96 85.25 C44.6 67.38, 56.24 51.11, 85.69 18.84 M27.96 85.25 C50.06 59.81, 73.97 34.86, 85.69 18.84 M30.98 87.88 C46.66 70.73, 61.93 55.29, 88.71 21.46 M30.98 87.88 C47.99 66.82, 66.92 46.72, 88.71 21.46 M33.99 90.5 C47.54 76.59, 60.25 62.11, 91.07 24.84 M33.99 90.5 C53.47 65.62, 74.62 42.02, 91.07 24.84 M37.01 93.13 C46.89 78.78, 62.32 63.52, 94.09 27.47 M37.01 93.13 C53.92 73.5, 73.28 52.73, 94.09 27.47 M39.38 96.5 C58.14 72.26, 77.82 50.06, 97.11 30.09 M39.38 96.5 C62.62 69.14, 85.45 43.84, 97.11 30.09 M42.39 99.13 C66.07 74.33, 86.96 45.64, 100.13 32.71 M42.39 99.13 C61.89 78.37, 80.61 54.86, 100.13 32.71 M45.41 101.75 C65.48 78.04, 85.52 57.17, 102.49 36.09 M45.41 101.75 C62.88 82.27, 78.01 63.93, 102.49 36.09 M48.43 104.38 C59.96 86.53, 74.04 72.84, 105.51 38.72 M48.43 104.38 C64.15 86.55, 79.5 68.85, 105.51 38.72 M51.45 107 C62.86 92.55, 75.98 78.75, 108.53 41.34 M51.45 107 C66.28 88.13, 83.19 68.56, 108.53 41.34 M54.47 109.63 C76.85 82.46, 96.54 57.87, 111.55 43.97 M54.47 109.63 C72.58 88.3, 91.99 67.21, 111.55 43.97 M58.14 111.5 C79.92 86.58, 100.22 60.21, 113.91 47.34 M58.14 111.5 C77.22 89.32, 97.59 66.61, 113.91 47.34 M61.16 114.12 C77.24 95.3, 95.51 73.84, 116.93 49.97 M61.16 114.12 C74.98 97.58, 91.16 80.86, 116.93 49.97 M64.84 115.99 C81.54 96.29, 99.95 77.22, 119.95 52.59 M64.84 115.99 C80.26 98.9, 94.2 82.54, 119.95 52.59 M72.45 113.33 C91.18 91.08, 110.04 70.12, 122.97 55.22 M72.45 113.33 C86.97 94.4, 103.12 77.48, 122.97 55.22 M83.34 106.9 C94.7 91.88, 107.71 75.88, 124.67 59.35 M83.34 106.9 C99.39 89.99, 115.45 71.22, 124.67 59.35" stroke="#ffc9c9" stroke-width="0.5" fill="none"></path><path d="M81.25 15 M81.25 15 C88.5 22.22, 99.36 30.47, 112.04 45 M81.25 15 C90.22 24.94, 100.59 34.08, 112.04 45 M112.04 45 C129.7 60.24, 126.36 59.52, 112.04 75 M112.04 45 C126.13 58.05, 127.88 62.14, 112.04 75 M112.04 75 C104.73 85.56, 94.72 90.27, 81.25 104.47 M112.04 75 C101.37 84.9, 89.64 96.66, 81.25 104.47 M81.25 104.47 C64.99 119.8, 66.54 120.95, 48.75 104.47 M81.25 104.47 C67.22 117.29, 65.37 118.64, 48.75 104.47 M48.75 104.47 C37.99 97.82, 28.55 87.57, 16.25 75 M48.75 104.47 C35.49 93.74, 22.8 81.71, 16.25 75 M16.25 75 C-1.54 61.99, 0.86 59.41, 16.25 45 M16.25 75 C1.7 59.18, -2.12 62.24, 16.25 45 M16.25 45 C24.22 38.91, 33.09 30.14, 48.75 15 M16.25 45 C24.08 38.31, 29.91 32.15, 48.75 15 M48.75 15 C64.39 0.73, 66.99 1.07, 81.25 15 M48.75 15 C66.53 1.94, 66.71 -0.49, 81.25 15" stroke="#1e1e1e" stroke-width="1" fill="none"></path></g><g transform="translate(998.2690161690045 399.06366249937554) rotate(0 31.77765655517578 11.015539835202645)"><text x="0" y="0" font-family="Virgil, Segoe UI Emoji" font-size="17.624863736324237px" fill="#1e1e1e" text-anchor="start" style="white-space: pre;" direction="ltr" dominant-baseline="text-before-edge">Mask N</text></g><g transform="translate(916.8557679800183 390.62920032881556) rotate(0 18.95599365234375 17.5)"><text x="0" y="0" font-family="Virgil, Segoe UI Emoji" font-size="28px" fill="#1e1e1e" text-anchor="start" style="white-space: pre;" direction="ltr" dominant-baseline="text-before-edge"></text></g></svg>